<?xml version="1.0" encoding="utf-8"?>
<!-- Generator: Adobe Illustrator 24.1.3, SVG Export Plug-In . SVG Version: 6.00 Build 0)  -->
<svg version="1.1" id="Layer_1" xmlns="http://www.w3.org/2000/svg" xmlns:xlink="http://www.w3.org/1999/xlink" x="0px" y="0px"
	 viewBox="0 0 19 19" style="enable-background:new 0 0 19 19;" xml:space="preserve">
<style type="text/css">
	.st0{fill:none;}
	.st1{fill:#C91352;}
	.st2{fill:none;stroke:#C91352;stroke-width:1.38;stroke-linecap:round;}
</style>
<desc>Created with Sketch.</desc>
<g id="entry-icons" transform="translate(-42.000000, -542.000000)">
	<g id="small_audio_name_initial" transform="translate(39.000000, 540.000000)">
		<g id="OLDNAmEaudio">
			<path id="Shape" class="st0" d="M24.1,23H0.9C0.4,23,0,22.6,0,22.1V0.9C0,0.4,0.4,0,0.9,0h23.2C24.6,0,25,0.4,25,0.9v21.2
				C25,22.6,24.6,23,24.1,23z"/>
			<g id="Group" transform="translate(3.571429, 2.300000)">
				<rect id="Rectangle-path" x="0" y="5.9" class="st1" width="4.2" height="7"/>
				<polygon id="Shape_1_" class="st1" points="2.6,6 2.6,12.9 9,18.5 9,18.5 9,0.1 				"/>
				<g id="Shape_2_" transform="translate(11.160714, 2.760000)">
					<path class="st2" d="M0.1,3.9c0,0,1.4,0.9,1.4,2.9S0.1,9.4,0.1,9.4"/>
					<path class="st2" d="M1.9,2.2c0,0,1.9,1.4,1.9,4.5c0,2.8-2.5,5.1-2.5,5.1"/>
					<path class="st2" d="M3.3,0.2c0,0,2.8,2.3,2.8,6.5c0,4-3.2,6.9-3.2,6.9"/>
				</g>
			</g>
		</g>
	</g>
</g>
</svg>
