<?xml version="1.0" encoding="utf-8"?>
<!-- Generator: Adobe Illustrator 24.1.3, SVG Export Plug-In . SVG Version: 6.00 Build 0)  -->
<svg version="1.1" id="Layer_1" xmlns="http://www.w3.org/2000/svg" xmlns:xlink="http://www.w3.org/1999/xlink" x="0px" y="0px"
	 viewBox="0 0 80 80" style="enable-background:new 0 0 80 80;" xml:space="preserve">
<style type="text/css">
	.st0{fill:#FFFFFF;stroke:#242E5B;stroke-miterlimit:10;}
	.st1{fill:none;stroke:#242E5B;stroke-width:1.9377;stroke-linecap:round;stroke-linejoin:round;stroke-miterlimit:10;}
	.st2{fill:none;stroke:#242E5B;stroke-width:2.5836;stroke-linecap:round;stroke-linejoin:round;stroke-miterlimit:10;}
	.st3{fill:none;stroke:#242E5B;stroke-width:3.2295;stroke-linecap:round;stroke-linejoin:round;stroke-miterlimit:10;}
</style>
<path class="st0" d="M40.6,63.2c-9.7,0-12.8-6.9-12.8-12.2V15.4c0-5.3,3.8-12.3,12.5-12.3s12.1,7,12.1,12.3V51
	C52.3,56.3,49.6,63.2,40.6,63.2z"/>
<path class="st1" d="M24.3,33.9c0,0,0,10.5,0,16.6s3.1,17.6,15.5,17.6c13.2,0,15.6-10.7,15.8-17.3c0.2-8.9,0.2-16.9,0.2-16.9"/>
<line class="st2" x1="40.1" y1="74.2" x2="40.1" y2="69.1"/>
<line class="st3" x1="28.2" y1="75.5" x2="52.2" y2="75.5"/>
</svg>
