<?xml version="1.0" encoding="utf-8"?>
<!-- Generator: Adobe Illustrator 24.1.0, SVG Export Plug-In . SVG Version: 6.00 Build 0)  -->
<svg version="1.1" id="Layer_1" xmlns="http://www.w3.org/2000/svg" xmlns:xlink="http://www.w3.org/1999/xlink" x="0px" y="0px"
	 viewBox="0 0 45.4 45.4" style="enable-background:new 0 0 45.4 45.4;" xml:space="preserve">
<style type="text/css">
	.st0{fill:none;stroke:#C8D0ED;stroke-width:0.75;stroke-miterlimit:10;}
	.st1{fill:none;stroke:url(#SVGID_1_);stroke-width:4.6891;stroke-miterlimit:10;}
	.st2{fill:none;stroke:url(#SVGID_2_);stroke-width:4.6891;stroke-miterlimit:10;}
	.st3{fill:#242E5B;stroke:#242E5B;stroke-width:0.9378;stroke-miterlimit:10;}
	.st4{fill:none;stroke:#6B8AC1;stroke-width:3.7513;stroke-linecap:round;stroke-linejoin:round;stroke-miterlimit:10;}
	.st5{fill:#6B8AC1;}
</style>
<circle class="st0" cx="22.6" cy="22.7" r="22"/>
<linearGradient id="SVGID_1_" gradientUnits="userSpaceOnUse" x1="34.7132" y1="420.1215" x2="34.7132" y2="420.1215" gradientTransform="matrix(1 0 0 -1 0 444.7951)">
	<stop  offset="0" style="stop-color:#FFFFFF"/>
	<stop  offset="0.9869" style="stop-color:#242E5B"/>
	<stop  offset="1" style="stop-color:#001E3F"/>
</linearGradient>
<path class="st1" d="M34.7,24.7"/>
<linearGradient id="SVGID_2_" gradientUnits="userSpaceOnUse" x1="34.7132" y1="420.1215" x2="34.7132" y2="420.1215" gradientTransform="matrix(1 0 0 -1 0 444.7951)">
	<stop  offset="0" style="stop-color:#FFFFFF"/>
	<stop  offset="0.9869" style="stop-color:#242E5B"/>
	<stop  offset="1" style="stop-color:#001E3F"/>
</linearGradient>
<path class="st2" d="M34.7,24.7"/>
<path class="st3" d="M11.8,39.2c-4.8,0-8.7-4.8-8.7-10.7S7,17.8,11.8,17.8"/>
<path class="st3" d="M33.6,39.1c4.8,0,8.7-4.8,8.7-10.7s-3.9-10.7-8.7-10.7"/>
<path class="st4" d="M10.4,27.8c0,0,0-7.4,0-9.8c0-7.3,5.5-13.8,12.3-13.8C29.5,4.2,35,10.6,35,18c0,3.3,0.3,10.4,0.3,10.4"/>
<circle class="st5" cx="36.5" cy="28.2" r="3.1"/>
<circle class="st5" cx="9.2" cy="28.1" r="3.1"/>
</svg>
