<?xml version="1.0" encoding="utf-8"?>
<!-- Generator: Adobe Illustrator 24.1.0, SVG Export Plug-In . SVG Version: 6.00 Build 0)  -->
<svg version="1.1" id="Layer_1" xmlns="http://www.w3.org/2000/svg" xmlns:xlink="http://www.w3.org/1999/xlink" x="0px" y="0px"
	 viewBox="0 0 48.2 48.2" style="enable-background:new 0 0 48.2 48.2;" xml:space="preserve">
<style type="text/css">
	.st0{fill:#C8D0ED;}
	.st1{fill:#6B8AC1;stroke:#FFFFFF;stroke-width:0.5;stroke-linecap:round;stroke-linejoin:round;stroke-miterlimit:10;}
	.st2{fill:none;stroke:#FFFFFF;stroke-width:0.5;stroke-miterlimit:10;}
	.st3{fill:#FFFFFF;stroke:#242E5B;stroke-width:1.0726;stroke-linecap:round;stroke-linejoin:round;stroke-miterlimit:10;}
	.st4{fill:#242E5B;}
	.st5{fill:#E8EAEF;}
	.st6{opacity:0.3;fill:#242E5B;enable-background:new    ;}
</style>
<circle class="st0" cx="22.7" cy="24" r="22"/>
<path class="st1" d="M30.8,46H6.6c-1.1,0-2-0.9-2-2V8.6c0-1.1,0.9-2,2-2h24.1c1.1,0,2,0.9,2,2v35.3C32.8,45.1,31.9,46,30.8,46z"/>
<line class="st2" x1="9.7" y1="13.4" x2="28.8" y2="13.4"/>
<line class="st2" x1="9.7" y1="19.2" x2="28.8" y2="19.2"/>
<line class="st2" x1="9.7" y1="25.3" x2="28.8" y2="25.3"/>
<line class="st2" x1="9.7" y1="31" x2="28.8" y2="31"/>
<g>
	<g>
		<path class="st3" d="M15.4,39.7l2.8-8.2l23.2-20.6c0,0,2.3,1.1,3.9,2.9c1.6,1.8,2,3.6,2,3.6L23.6,38.5L15.4,39.7z"/>
		<path class="st4" d="M22.7,36.3l1.5,1.9l23.3-20.6L46,15.1C46,15.2,22.6,35.5,22.7,36.3z"/>
		<path class="st5" d="M24,37.8L16.2,39l2.3-7.1C18.4,32,21.7,33.7,24,37.8z"/>
	</g>
	<g>
		<path class="st6" d="M21.7,34.5l1.2,1.4L46,15.2l-1.5-1.8C44.4,13.4,17.1,38.9,21.7,34.5z"/>
	</g>
</g>
</svg>
