<?xml version="1.0" encoding="utf-8"?>
<!-- Generator: Adobe Illustrator 24.1.0, SVG Export Plug-In . SVG Version: 6.00 Build 0)  -->
<svg version="1.1" id="Layer_1" xmlns="http://www.w3.org/2000/svg" xmlns:xlink="http://www.w3.org/1999/xlink" x="0px" y="0px"
	 viewBox="0 0 45.4 45.4" style="enable-background:new 0 0 45.4 45.4;" xml:space="preserve">
<style type="text/css">
	.st0{fill:#C8D0ED;}
	.st1{fill:#242E5B;stroke:#FFFFFF;stroke-width:0.4109;stroke-linecap:round;stroke-linejoin:round;stroke-miterlimit:10;}
	.st2{fill:#242E5B;stroke:#FFFFFF;stroke-width:0.3096;stroke-linecap:round;stroke-linejoin:round;stroke-miterlimit:10;}
	.st3{fill:#FFFFFF;stroke:#FFFFFF;stroke-width:0.3096;stroke-linecap:round;stroke-linejoin:round;stroke-miterlimit:10;}
</style>
<circle class="st0" cx="22.5" cy="22.7" r="22"/>
<path class="st1" d="M39.1,11.3v19.3c0,0.9-0.8,1.6-1.7,1.6h-30c-0.9,0-1.7-0.7-1.7-1.6V11.4c0-0.9,0.8-1.6,1.7-1.6h29.9
	C38.3,9.7,39.1,10.4,39.1,11.3z"/>
<path class="st2" d="M28.7,33.5v2.3c0,0.1-0.3,0.2-0.6,0.2h-11c-0.3,0-0.6-0.1-0.6-0.2v-2.3c0-0.1,0.3-0.2,0.6-0.2h11
	C28.5,33.3,28.7,33.4,28.7,33.5z"/>
<polygon class="st3" points="19.9,17.6 19.9,25.1 25.5,21.8 "/>
</svg>
